<mxfile host="app.diagrams.net" modified="2023-06-09T07:38:44.083Z" agent="Mozilla/5.0 (Windows NT 10.0; Win64; x64) AppleWebKit/537.36 (KHTML, like Gecko) Chrome/114.0.0.0 Safari/537.36" etag="QmAEsysV4I-1GoRFUMq0" version="21.3.8" type="google">
  <diagram name="Page-1" id="yXmm3q6YveMXn_VLhChS">
    <mxGraphModel grid="1" page="1" gridSize="10" guides="1" tooltips="1" connect="1" arrows="1" fold="1" pageScale="1" pageWidth="2339" pageHeight="3300" math="0" shadow="0">
      <root>
        <mxCell id="0" />
        <mxCell id="1" parent="0" />
        <mxCell id="5zNxtTob4UXmjuOCQYm5-3" value="NavBar" style="rounded=1;whiteSpace=wrap;html=1;" vertex="1" parent="1">
          <mxGeometry x="830" y="200" width="130" height="60" as="geometry" />
        </mxCell>
        <mxCell id="5zNxtTob4UXmjuOCQYm5-4" value="Footer" style="rounded=1;whiteSpace=wrap;html=1;" vertex="1" parent="1">
          <mxGeometry x="1380" y="200" width="130" height="60" as="geometry" />
        </mxCell>
        <mxCell id="5zNxtTob4UXmjuOCQYm5-22" style="edgeStyle=orthogonalEdgeStyle;rounded=0;orthogonalLoop=1;jettySize=auto;html=1;exitX=0.5;exitY=1;exitDx=0;exitDy=0;entryX=0.5;entryY=0;entryDx=0;entryDy=0;" edge="1" parent="1" source="5zNxtTob4UXmjuOCQYm5-5" target="5zNxtTob4UXmjuOCQYm5-8">
          <mxGeometry relative="1" as="geometry" />
        </mxCell>
        <mxCell id="5zNxtTob4UXmjuOCQYm5-5" value="Search" style="rounded=1;whiteSpace=wrap;html=1;" vertex="1" parent="1">
          <mxGeometry x="830" y="390" width="130" height="60" as="geometry" />
        </mxCell>
        <mxCell id="5zNxtTob4UXmjuOCQYm5-29" style="edgeStyle=orthogonalEdgeStyle;rounded=0;orthogonalLoop=1;jettySize=auto;html=1;exitX=0.5;exitY=1;exitDx=0;exitDy=0;entryX=0.5;entryY=0;entryDx=0;entryDy=0;" edge="1" parent="1" source="5zNxtTob4UXmjuOCQYm5-7" target="5zNxtTob4UXmjuOCQYm5-27">
          <mxGeometry relative="1" as="geometry" />
        </mxCell>
        <mxCell id="5zNxtTob4UXmjuOCQYm5-7" value="StoryCollection" style="rounded=1;whiteSpace=wrap;html=1;fontStyle=1;fontColor=#000000;fillColor=#FFFFCC;" vertex="1" parent="1">
          <mxGeometry x="1380" y="390" width="130" height="60" as="geometry" />
        </mxCell>
        <mxCell id="5zNxtTob4UXmjuOCQYm5-8" value="UserInput" style="rounded=1;whiteSpace=wrap;html=1;" vertex="1" parent="1">
          <mxGeometry x="830" y="530" width="130" height="60" as="geometry" />
        </mxCell>
        <mxCell id="5zNxtTob4UXmjuOCQYm5-24" style="edgeStyle=orthogonalEdgeStyle;rounded=0;orthogonalLoop=1;jettySize=auto;html=1;exitX=0.5;exitY=1;exitDx=0;exitDy=0;entryX=0.5;entryY=0;entryDx=0;entryDy=0;" edge="1" parent="1" source="5zNxtTob4UXmjuOCQYm5-9" target="5zNxtTob4UXmjuOCQYm5-10">
          <mxGeometry relative="1" as="geometry" />
        </mxCell>
        <mxCell id="5zNxtTob4UXmjuOCQYm5-9" value="VideoUpload" style="rounded=1;whiteSpace=wrap;html=1;" vertex="1" parent="1">
          <mxGeometry x="1105" y="530" width="130" height="60" as="geometry" />
        </mxCell>
        <mxCell id="5zNxtTob4UXmjuOCQYm5-63" style="edgeStyle=orthogonalEdgeStyle;rounded=0;orthogonalLoop=1;jettySize=auto;html=1;exitX=0.5;exitY=1;exitDx=0;exitDy=0;entryX=0.5;entryY=0;entryDx=0;entryDy=0;" edge="1" parent="1" source="5zNxtTob4UXmjuOCQYm5-10" target="5zNxtTob4UXmjuOCQYm5-52">
          <mxGeometry relative="1" as="geometry" />
        </mxCell>
        <mxCell id="5zNxtTob4UXmjuOCQYm5-10" value="ImageUpload" style="rounded=1;whiteSpace=wrap;html=1;" vertex="1" parent="1">
          <mxGeometry x="1105" y="680" width="130" height="60" as="geometry" />
        </mxCell>
        <mxCell id="5zNxtTob4UXmjuOCQYm5-30" style="edgeStyle=orthogonalEdgeStyle;rounded=0;orthogonalLoop=1;jettySize=auto;html=1;exitX=0.5;exitY=1;exitDx=0;exitDy=0;entryX=0.5;entryY=0;entryDx=0;entryDy=0;" edge="1" parent="1" source="5zNxtTob4UXmjuOCQYm5-27" target="5zNxtTob4UXmjuOCQYm5-28">
          <mxGeometry relative="1" as="geometry" />
        </mxCell>
        <mxCell id="5zNxtTob4UXmjuOCQYm5-27" value="StoryCard" style="rounded=1;whiteSpace=wrap;html=1;" vertex="1" parent="1">
          <mxGeometry x="1380" y="530" width="130" height="60" as="geometry" />
        </mxCell>
        <mxCell id="5zNxtTob4UXmjuOCQYm5-28" value="Story" style="rounded=1;whiteSpace=wrap;html=1;fontStyle=1;fontColor=#000000;fillColor=#FFFFCC;" vertex="1" parent="1">
          <mxGeometry x="1380" y="680" width="130" height="60" as="geometry" />
        </mxCell>
        <mxCell id="5zNxtTob4UXmjuOCQYm5-38" value="Filter" style="rounded=1;whiteSpace=wrap;html=1;" vertex="1" parent="1">
          <mxGeometry x="490" y="390" width="130" height="60" as="geometry" />
        </mxCell>
        <mxCell id="vHPRXUMPZwmQB7vEgJFN-10" style="edgeStyle=orthogonalEdgeStyle;rounded=0;orthogonalLoop=1;jettySize=auto;html=1;exitX=0.5;exitY=1;exitDx=0;exitDy=0;fillColor=#0050ef;strokeColor=#6666FF;" edge="1" parent="1" source="5zNxtTob4UXmjuOCQYm5-40" target="vHPRXUMPZwmQB7vEgJFN-8">
          <mxGeometry relative="1" as="geometry" />
        </mxCell>
        <mxCell id="5zNxtTob4UXmjuOCQYm5-40" value="RandomStory" style="rounded=1;whiteSpace=wrap;html=1;" vertex="1" parent="1">
          <mxGeometry x="660" y="390" width="130" height="60" as="geometry" />
        </mxCell>
        <mxCell id="5zNxtTob4UXmjuOCQYm5-41" value="ProfileOther" style="rounded=1;whiteSpace=wrap;html=1;fontStyle=1;fontColor=#000000;fillColor=#FFFFCC;" vertex="1" parent="1">
          <mxGeometry x="1770" y="390" width="130" height="60" as="geometry" />
        </mxCell>
        <mxCell id="5zNxtTob4UXmjuOCQYm5-42" value="ProfileOwn" style="rounded=1;whiteSpace=wrap;html=1;fillColor=#FFFFCC;fontStyle=1;fontColor=#000000;" vertex="1" parent="1">
          <mxGeometry x="1950" y="390" width="130" height="60" as="geometry" />
        </mxCell>
        <mxCell id="5zNxtTob4UXmjuOCQYm5-77" style="edgeStyle=orthogonalEdgeStyle;rounded=0;orthogonalLoop=1;jettySize=auto;html=1;exitX=0.5;exitY=1;exitDx=0;exitDy=0;entryX=0.5;entryY=0;entryDx=0;entryDy=0;" edge="1" parent="1" source="5zNxtTob4UXmjuOCQYm5-45" target="5zNxtTob4UXmjuOCQYm5-9">
          <mxGeometry relative="1" as="geometry" />
        </mxCell>
        <mxCell id="vHPRXUMPZwmQB7vEgJFN-7" style="edgeStyle=orthogonalEdgeStyle;rounded=0;orthogonalLoop=1;jettySize=auto;html=1;exitX=1;exitY=0.5;exitDx=0;exitDy=0;entryX=0.5;entryY=1;entryDx=0;entryDy=0;fillColor=#0050ef;strokeColor=#6666FF;" edge="1" parent="1" source="5zNxtTob4UXmjuOCQYm5-45" target="vHPRXUMPZwmQB7vEgJFN-1">
          <mxGeometry relative="1" as="geometry">
            <Array as="points">
              <mxPoint x="1320" y="420" />
              <mxPoint x="1320" y="920" />
              <mxPoint x="1670" y="920" />
            </Array>
          </mxGeometry>
        </mxCell>
        <mxCell id="5zNxtTob4UXmjuOCQYm5-45" value="UploadForm" style="rounded=1;whiteSpace=wrap;html=1;fontColor=#000000;fillColor=#FFFFCC;fontStyle=1" vertex="1" parent="1">
          <mxGeometry x="1109" y="390" width="120" height="60" as="geometry" />
        </mxCell>
        <mxCell id="vHPRXUMPZwmQB7vEgJFN-11" style="rounded=0;orthogonalLoop=1;jettySize=auto;html=1;exitX=0.5;exitY=1;exitDx=0;exitDy=0;entryX=0.5;entryY=0;entryDx=0;entryDy=0;fillColor=#0050ef;strokeColor=#6666FF;edgeStyle=orthogonalEdgeStyle;" edge="1" parent="1" source="5zNxtTob4UXmjuOCQYm5-47" target="vHPRXUMPZwmQB7vEgJFN-9">
          <mxGeometry relative="1" as="geometry" />
        </mxCell>
        <mxCell id="5zNxtTob4UXmjuOCQYm5-47" value="Login" style="rounded=1;whiteSpace=wrap;html=1;fontStyle=1;fontColor=#000000;fillColor=#FFFFCC;" vertex="1" parent="1">
          <mxGeometry x="320" y="390" width="130" height="60" as="geometry" />
        </mxCell>
        <mxCell id="vHPRXUMPZwmQB7vEgJFN-12" style="edgeStyle=orthogonalEdgeStyle;rounded=0;orthogonalLoop=1;jettySize=auto;html=1;entryX=0;entryY=0.5;entryDx=0;entryDy=0;exitX=0.5;exitY=1;exitDx=0;exitDy=0;fillColor=#d80073;strokeColor=#6666FF;" edge="1" parent="1" source="5zNxtTob4UXmjuOCQYm5-48" target="vHPRXUMPZwmQB7vEgJFN-9">
          <mxGeometry relative="1" as="geometry" />
        </mxCell>
        <mxCell id="5zNxtTob4UXmjuOCQYm5-48" value="SignUp" style="rounded=1;whiteSpace=wrap;html=1;fillColor=#FFFFCC;fontStyle=1;fontColor=#000000;" vertex="1" parent="1">
          <mxGeometry x="150" y="390" width="130" height="60" as="geometry" />
        </mxCell>
        <mxCell id="5zNxtTob4UXmjuOCQYm5-50" value="AboutUs" style="rounded=1;whiteSpace=wrap;html=1;fillColor=#FFFFCC;fontColor=#000000;fontStyle=1" vertex="1" parent="1">
          <mxGeometry x="1590" y="390" width="130" height="60" as="geometry" />
        </mxCell>
        <mxCell id="5zNxtTob4UXmjuOCQYm5-64" style="edgeStyle=orthogonalEdgeStyle;rounded=0;orthogonalLoop=1;jettySize=auto;html=1;exitX=0.5;exitY=1;exitDx=0;exitDy=0;entryX=0.5;entryY=0;entryDx=0;entryDy=0;" edge="1" parent="1" source="5zNxtTob4UXmjuOCQYm5-52" target="5zNxtTob4UXmjuOCQYm5-53">
          <mxGeometry relative="1" as="geometry" />
        </mxCell>
        <mxCell id="5zNxtTob4UXmjuOCQYm5-52" value="TextUpload" style="rounded=1;whiteSpace=wrap;html=1;" vertex="1" parent="1">
          <mxGeometry x="1110" y="820" width="120" height="60" as="geometry" />
        </mxCell>
        <mxCell id="5zNxtTob4UXmjuOCQYm5-65" style="edgeStyle=orthogonalEdgeStyle;rounded=0;orthogonalLoop=1;jettySize=auto;html=1;exitX=0.5;exitY=1;exitDx=0;exitDy=0;" edge="1" parent="1" source="5zNxtTob4UXmjuOCQYm5-53" target="5zNxtTob4UXmjuOCQYm5-54">
          <mxGeometry relative="1" as="geometry" />
        </mxCell>
        <mxCell id="5zNxtTob4UXmjuOCQYm5-53" value="AudioUpload" style="rounded=1;whiteSpace=wrap;html=1;" vertex="1" parent="1">
          <mxGeometry x="1109" y="970" width="120" height="60" as="geometry" />
        </mxCell>
        <mxCell id="5zNxtTob4UXmjuOCQYm5-66" style="edgeStyle=orthogonalEdgeStyle;rounded=0;orthogonalLoop=1;jettySize=auto;html=1;exitX=0.5;exitY=1;exitDx=0;exitDy=0;" edge="1" parent="1" source="5zNxtTob4UXmjuOCQYm5-54" target="5zNxtTob4UXmjuOCQYm5-55">
          <mxGeometry relative="1" as="geometry" />
        </mxCell>
        <mxCell id="5zNxtTob4UXmjuOCQYm5-54" value="UploadSuccess" style="rounded=1;whiteSpace=wrap;html=1;" vertex="1" parent="1">
          <mxGeometry x="1109" y="1100" width="120" height="60" as="geometry" />
        </mxCell>
        <mxCell id="5zNxtTob4UXmjuOCQYm5-55" value="Error" style="rounded=1;whiteSpace=wrap;html=1;" vertex="1" parent="1">
          <mxGeometry x="1110" y="1230" width="120" height="60" as="geometry" />
        </mxCell>
        <mxCell id="5zNxtTob4UXmjuOCQYm5-67" style="edgeStyle=orthogonalEdgeStyle;rounded=0;orthogonalLoop=1;jettySize=auto;html=1;exitX=0.5;exitY=1;exitDx=0;exitDy=0;" edge="1" parent="1" source="5zNxtTob4UXmjuOCQYm5-56" target="5zNxtTob4UXmjuOCQYm5-45">
          <mxGeometry relative="1" as="geometry" />
        </mxCell>
        <mxCell id="5zNxtTob4UXmjuOCQYm5-68" style="edgeStyle=orthogonalEdgeStyle;rounded=0;orthogonalLoop=1;jettySize=auto;html=1;" edge="1" parent="1" target="5zNxtTob4UXmjuOCQYm5-7">
          <mxGeometry relative="1" as="geometry">
            <mxPoint x="1170" y="340" as="sourcePoint" />
          </mxGeometry>
        </mxCell>
        <mxCell id="5zNxtTob4UXmjuOCQYm5-69" style="edgeStyle=orthogonalEdgeStyle;rounded=0;orthogonalLoop=1;jettySize=auto;html=1;" edge="1" parent="1" target="5zNxtTob4UXmjuOCQYm5-50">
          <mxGeometry relative="1" as="geometry">
            <mxPoint x="1430" y="340" as="sourcePoint" />
          </mxGeometry>
        </mxCell>
        <mxCell id="5zNxtTob4UXmjuOCQYm5-70" style="edgeStyle=orthogonalEdgeStyle;rounded=0;orthogonalLoop=1;jettySize=auto;html=1;entryX=0.5;entryY=0;entryDx=0;entryDy=0;" edge="1" parent="1" target="5zNxtTob4UXmjuOCQYm5-41">
          <mxGeometry relative="1" as="geometry">
            <mxPoint x="1650" y="340" as="sourcePoint" />
          </mxGeometry>
        </mxCell>
        <mxCell id="5zNxtTob4UXmjuOCQYm5-71" style="edgeStyle=orthogonalEdgeStyle;rounded=0;orthogonalLoop=1;jettySize=auto;html=1;entryX=0.5;entryY=0;entryDx=0;entryDy=0;" edge="1" parent="1" target="5zNxtTob4UXmjuOCQYm5-42">
          <mxGeometry relative="1" as="geometry">
            <mxPoint x="1820" y="340" as="sourcePoint" />
          </mxGeometry>
        </mxCell>
        <mxCell id="5zNxtTob4UXmjuOCQYm5-72" style="edgeStyle=orthogonalEdgeStyle;rounded=0;orthogonalLoop=1;jettySize=auto;html=1;entryX=0.5;entryY=0;entryDx=0;entryDy=0;" edge="1" parent="1" target="5zNxtTob4UXmjuOCQYm5-5">
          <mxGeometry relative="1" as="geometry">
            <mxPoint x="1170" y="340" as="sourcePoint" />
          </mxGeometry>
        </mxCell>
        <mxCell id="5zNxtTob4UXmjuOCQYm5-73" style="edgeStyle=orthogonalEdgeStyle;rounded=0;orthogonalLoop=1;jettySize=auto;html=1;entryX=0.5;entryY=0;entryDx=0;entryDy=0;" edge="1" parent="1" target="5zNxtTob4UXmjuOCQYm5-40">
          <mxGeometry relative="1" as="geometry">
            <mxPoint x="910" y="340" as="sourcePoint" />
          </mxGeometry>
        </mxCell>
        <mxCell id="5zNxtTob4UXmjuOCQYm5-74" style="edgeStyle=orthogonalEdgeStyle;rounded=0;orthogonalLoop=1;jettySize=auto;html=1;entryX=0.5;entryY=0;entryDx=0;entryDy=0;" edge="1" parent="1" target="5zNxtTob4UXmjuOCQYm5-38">
          <mxGeometry relative="1" as="geometry">
            <mxPoint x="750" y="341" as="sourcePoint" />
          </mxGeometry>
        </mxCell>
        <mxCell id="5zNxtTob4UXmjuOCQYm5-75" style="edgeStyle=orthogonalEdgeStyle;rounded=0;orthogonalLoop=1;jettySize=auto;html=1;entryX=0.5;entryY=0;entryDx=0;entryDy=0;" edge="1" parent="1" target="5zNxtTob4UXmjuOCQYm5-47">
          <mxGeometry relative="1" as="geometry">
            <mxPoint x="560" y="340" as="sourcePoint" />
          </mxGeometry>
        </mxCell>
        <mxCell id="5zNxtTob4UXmjuOCQYm5-76" style="edgeStyle=orthogonalEdgeStyle;rounded=0;orthogonalLoop=1;jettySize=auto;html=1;" edge="1" parent="1" target="5zNxtTob4UXmjuOCQYm5-48">
          <mxGeometry relative="1" as="geometry">
            <mxPoint x="420" y="340" as="sourcePoint" />
          </mxGeometry>
        </mxCell>
        <mxCell id="5zNxtTob4UXmjuOCQYm5-56" value="Content" style="rounded=1;whiteSpace=wrap;html=1;" vertex="1" parent="1">
          <mxGeometry x="1110" y="200" width="120" height="60" as="geometry" />
        </mxCell>
        <mxCell id="5zNxtTob4UXmjuOCQYm5-59" style="edgeStyle=orthogonalEdgeStyle;rounded=0;orthogonalLoop=1;jettySize=auto;html=1;exitX=0.5;exitY=1;exitDx=0;exitDy=0;entryX=0.5;entryY=0;entryDx=0;entryDy=0;" edge="1" parent="1" source="5zNxtTob4UXmjuOCQYm5-57" target="5zNxtTob4UXmjuOCQYm5-56">
          <mxGeometry relative="1" as="geometry" />
        </mxCell>
        <mxCell id="5zNxtTob4UXmjuOCQYm5-61" style="edgeStyle=orthogonalEdgeStyle;rounded=0;orthogonalLoop=1;jettySize=auto;html=1;entryX=0.5;entryY=0;entryDx=0;entryDy=0;" edge="1" parent="1" target="5zNxtTob4UXmjuOCQYm5-3">
          <mxGeometry relative="1" as="geometry">
            <mxPoint x="1170" y="160" as="sourcePoint" />
          </mxGeometry>
        </mxCell>
        <mxCell id="5zNxtTob4UXmjuOCQYm5-62" style="edgeStyle=orthogonalEdgeStyle;rounded=0;orthogonalLoop=1;jettySize=auto;html=1;entryX=0.5;entryY=0;entryDx=0;entryDy=0;" edge="1" parent="1" target="5zNxtTob4UXmjuOCQYm5-4">
          <mxGeometry relative="1" as="geometry">
            <mxPoint x="1170" y="160" as="sourcePoint" />
          </mxGeometry>
        </mxCell>
        <mxCell id="5zNxtTob4UXmjuOCQYm5-57" value="App" style="rounded=1;whiteSpace=wrap;html=1;fillColor=#FFFFCC;fontColor=#000000;fontStyle=1" vertex="1" parent="1">
          <mxGeometry x="1110" y="40" width="120" height="60" as="geometry" />
        </mxCell>
        <mxCell id="vHPRXUMPZwmQB7vEgJFN-3" style="edgeStyle=orthogonalEdgeStyle;rounded=0;orthogonalLoop=1;jettySize=auto;html=1;exitX=0;exitY=0.5;exitDx=0;exitDy=0;entryX=1;entryY=0.5;entryDx=0;entryDy=0;fontColor=#007FFF;fillColor=#0050ef;strokeColor=#6666FF;" edge="1" parent="1" source="vHPRXUMPZwmQB7vEgJFN-1" target="5zNxtTob4UXmjuOCQYm5-7">
          <mxGeometry relative="1" as="geometry" />
        </mxCell>
        <mxCell id="vHPRXUMPZwmQB7vEgJFN-1" value="Stories Table" style="rounded=0;whiteSpace=wrap;html=1;fillColor=#CCFFFF;fontColor=#000000;fontStyle=1" vertex="1" parent="1">
          <mxGeometry x="1610" y="800" width="120" height="60" as="geometry" />
        </mxCell>
        <mxCell id="vHPRXUMPZwmQB7vEgJFN-5" style="edgeStyle=orthogonalEdgeStyle;rounded=0;orthogonalLoop=1;jettySize=auto;html=1;exitX=0.5;exitY=0;exitDx=0;exitDy=0;fillColor=#0050ef;strokeColor=#6666FF;" edge="1" parent="1" source="vHPRXUMPZwmQB7vEgJFN-2">
          <mxGeometry relative="1" as="geometry">
            <mxPoint x="1930" y="420" as="targetPoint" />
          </mxGeometry>
        </mxCell>
        <mxCell id="vHPRXUMPZwmQB7vEgJFN-2" value="Users Table" style="rounded=0;whiteSpace=wrap;html=1;fillColor=#CCFFFF;fontColor=#000000;fontStyle=1" vertex="1" parent="1">
          <mxGeometry x="1800" y="800" width="120" height="60" as="geometry" />
        </mxCell>
        <mxCell id="vHPRXUMPZwmQB7vEgJFN-6" value="" style="endArrow=classic;startArrow=classic;html=1;rounded=0;entryX=0;entryY=0.5;entryDx=0;entryDy=0;exitX=1;exitY=0.5;exitDx=0;exitDy=0;fillColor=#0050ef;strokeColor=#6666FF;" edge="1" parent="1" source="5zNxtTob4UXmjuOCQYm5-41" target="5zNxtTob4UXmjuOCQYm5-42">
          <mxGeometry width="50" height="50" relative="1" as="geometry">
            <mxPoint x="1900" y="430" as="sourcePoint" />
            <mxPoint x="1950" y="380" as="targetPoint" />
          </mxGeometry>
        </mxCell>
        <mxCell id="vHPRXUMPZwmQB7vEgJFN-8" value="Stories Table" style="rounded=0;whiteSpace=wrap;html=1;fillColor=#CCFFFF;fontColor=#000000;fontStyle=1" vertex="1" parent="1">
          <mxGeometry x="665" y="810" width="120" height="60" as="geometry" />
        </mxCell>
        <mxCell id="vHPRXUMPZwmQB7vEgJFN-9" value="Users Table" style="rounded=0;whiteSpace=wrap;html=1;fillColor=#CCFFFF;fontColor=#000000;fontStyle=1" vertex="1" parent="1">
          <mxGeometry x="400" y="810" width="120" height="60" as="geometry" />
        </mxCell>
        <mxCell id="vHPRXUMPZwmQB7vEgJFN-13" value="&lt;font style=&quot;font-size: 18px;&quot;&gt;DATABASE&lt;/font&gt;" style="rounded=0;whiteSpace=wrap;html=1;fillColor=#CCFFFF;fontColor=#000000;fontStyle=1" vertex="1" parent="1">
          <mxGeometry x="1790" y="1110" width="120" height="60" as="geometry" />
        </mxCell>
        <mxCell id="vHPRXUMPZwmQB7vEgJFN-14" value="&lt;font style=&quot;font-size: 18px;&quot;&gt;KEY&lt;/font&gt;" style="text;html=1;strokeColor=none;fillColor=none;align=center;verticalAlign=middle;whiteSpace=wrap;rounded=0;" vertex="1" parent="1">
          <mxGeometry x="1810" y="1040" width="60" height="30" as="geometry" />
        </mxCell>
        <mxCell id="vHPRXUMPZwmQB7vEgJFN-15" value="&lt;font style=&quot;font-size: 18px;&quot;&gt;COMPONENT&lt;/font&gt;" style="rounded=1;whiteSpace=wrap;html=1;" vertex="1" parent="1">
          <mxGeometry x="1790" y="1210" width="120" height="60" as="geometry" />
        </mxCell>
        <mxCell id="vHPRXUMPZwmQB7vEgJFN-16" value="&lt;font style=&quot;font-size: 18px;&quot;&gt;PAGE/POPUP&lt;/font&gt;" style="rounded=1;whiteSpace=wrap;html=1;fontStyle=1;fontColor=#000000;fillColor=#FFFFCC;" vertex="1" parent="1">
          <mxGeometry x="1795" y="1300" width="130" height="60" as="geometry" />
        </mxCell>
        <mxCell id="_NzZmt9z2BSs8WIMd4yx-2" value="&lt;font style=&quot;font-size: 10px;&quot;&gt;props: searchTerm, setSearchTerm&lt;/font&gt;" style="text;html=1;strokeColor=none;fillColor=none;align=center;verticalAlign=middle;whiteSpace=wrap;rounded=0;" vertex="1" parent="1">
          <mxGeometry x="860" y="290" width="80" height="50" as="geometry" />
        </mxCell>
        <mxCell id="_NzZmt9z2BSs8WIMd4yx-3" value="&lt;font style=&quot;font-size: 10px;&quot;&gt;props: searchTerm&lt;/font&gt;" style="text;html=1;strokeColor=none;fillColor=none;align=center;verticalAlign=middle;whiteSpace=wrap;rounded=0;" vertex="1" parent="1">
          <mxGeometry x="1405" y="290" width="80" height="50" as="geometry" />
        </mxCell>
        <mxCell id="_NzZmt9z2BSs8WIMd4yx-4" value="&lt;font style=&quot;font-size: 10px;&quot;&gt;props: &lt;br&gt;storyList&lt;/font&gt;" style="text;html=1;strokeColor=none;fillColor=none;align=center;verticalAlign=middle;whiteSpace=wrap;rounded=0;" vertex="1" parent="1">
          <mxGeometry x="1450" y="460" width="80" height="50" as="geometry" />
        </mxCell>
        <mxCell id="_NzZmt9z2BSs8WIMd4yx-5" value="&lt;font style=&quot;font-size: 10px;&quot;&gt;props: &lt;br&gt;storyDetails&lt;/font&gt;" style="text;html=1;strokeColor=none;fillColor=none;align=center;verticalAlign=middle;whiteSpace=wrap;rounded=0;" vertex="1" parent="1">
          <mxGeometry x="1450" y="610" width="80" height="50" as="geometry" />
        </mxCell>
        <mxCell id="_NzZmt9z2BSs8WIMd4yx-6" value="&lt;font style=&quot;font-size: 10px;&quot;&gt;props:&amp;nbsp;&lt;br&gt;UserName,&lt;br&gt;setUserName&lt;br&gt;&lt;/font&gt;" style="text;html=1;strokeColor=none;fillColor=none;align=center;verticalAlign=middle;whiteSpace=wrap;rounded=0;" vertex="1" parent="1">
          <mxGeometry x="350" y="280" width="80" height="50" as="geometry" />
        </mxCell>
      </root>
    </mxGraphModel>
  </diagram>
</mxfile>
